<svg width="23" height="38" viewBox="0 0 23 38" fill="none" xmlns="http://www.w3.org/2000/svg">
<path d="M13 1.5C13 0.671573 12.3284 0 11.5 0C10.6716 0 10 0.671573 10 1.5H13ZM10.4393 37.5607C11.0251 38.1464 11.9749 38.1464 12.5607 37.5607L22.1066 28.0147C22.6924 27.4289 22.6924 26.4792 22.1066 25.8934C21.5208 25.3076 20.5711 25.3076 19.9853 25.8934L11.5 34.3787L3.01472 25.8934C2.42893 25.3076 1.47919 25.3076 0.893398 25.8934C0.307611 26.4792 0.307611 27.4289 0.893398 28.0147L10.4393 37.5607ZM10 1.5L10 36.5H13L13 1.5H10Z" fill="black"/>
</svg>
