<svg width="20" height="16" viewBox="0 0 20 16" fill="none" xmlns="http://www.w3.org/2000/svg">
<path d="M2 6.98581C1.43988 6.98581 0.985815 7.43988 0.985815 8C0.985815 8.56012 1.43988 9.01419 2 9.01419V6.98581ZM18.7171 8.71714C19.1132 8.32107 19.1132 7.67893 18.7171 7.28286L12.2629 0.828629C11.8668 0.432565 11.2247 0.432565 10.8286 0.828629C10.4326 1.22469 10.4326 1.86684 10.8286 2.2629L16.5657 8L10.8286 13.7371C10.4326 14.1332 10.4326 14.7753 10.8286 15.1714C11.2247 15.5674 11.8668 15.5674 12.2629 15.1714L18.7171 8.71714ZM2 9.01419H18V6.98581H2V9.01419Z" fill="#3B80EA"/>
</svg>
