<svg width="22" height="24" viewBox="0 0 22 24" fill="none" xmlns="http://www.w3.org/2000/svg">
<path d="M21.5 19H4C3.69058 19 3.39383 19.123 3.17504 19.3417C2.95625 19.5605 2.83333 19.8573 2.83333 20.1667C2.83333 20.4761 2.95625 20.7729 3.17504 20.9917C3.39383 21.2105 3.69058 21.3334 4 21.3334H21.5V23.6667H4C3.07174 23.6667 2.1815 23.298 1.52513 22.6416C0.868749 21.9852 0.5 21.095 0.5 20.1667V2.66671C0.5 2.04787 0.745833 1.45438 1.18342 1.01679C1.621 0.579207 2.21449 0.333374 2.83333 0.333374H21.5V19ZM2.83333 16.725C3.02233 16.6865 3.21717 16.6667 3.41667 16.6667H19.1667V2.66671H2.83333V16.725ZM15.6667 8.50004H6.33333V6.16671H15.6667V8.50004Z" fill="white"/>
</svg>
