<svg width="12" height="12" viewBox="0 0 12 12" fill="none" xmlns="http://www.w3.org/2000/svg">
<path d="M6.00023 4.58599L10.2432 0.342987C10.6337 -0.0474781 11.2668 -0.0474791 11.6572 0.342986C12.0477 0.733452 12.0477 1.36652 11.6572 1.75699L7.41423 5.99999L11.6572 10.243C12.0477 10.6335 12.0477 11.2665 11.6572 11.657C11.2668 12.0475 10.6337 12.0475 10.2432 11.657L6.00023 7.41399L1.75723 11.657C1.36677 12.0475 0.733696 12.0475 0.343231 11.657C-0.047235 11.2665 -0.0472347 10.6335 0.343231 10.243L4.58623 5.99999L0.343231 1.75699C-0.047234 1.36652 -0.0472349 0.733452 0.34323 0.342986C0.733696 -0.0474791 1.36677 -0.0474789 1.75723 0.342987L6.00023 4.58599Z" fill="white"/>
</svg>
