<svg width="34" height="34" viewBox="0 0 34 34" fill="none" xmlns="http://www.w3.org/2000/svg">
<path d="M25.8545 31.1666H8.14616C6.78616 31.1666 5.66699 30.0475 5.66699 28.6875V5.31248C5.66699 3.95248 6.78616 2.83331 8.14616 2.83331H25.8545C27.2145 2.83331 28.3337 3.95248 28.3337 5.31248V28.6875C28.3337 30.0475 27.2145 31.1666 25.8545 31.1666ZM8.14616 4.95831C7.94783 4.95831 7.79199 5.11415 7.79199 5.31248V28.6875C7.79199 28.8858 7.94783 29.0416 8.14616 29.0416H25.8545C26.0528 29.0416 26.2087 28.8858 26.2087 28.6875V5.31248C26.2087 5.11415 26.0528 4.95831 25.8545 4.95831H8.14616Z" fill="white"/>
<path d="M16.6603 14.8891H10.9795C10.3987 14.8891 9.91699 14.4075 9.91699 13.8266V8.14581C9.91699 7.56498 10.3987 7.08331 10.9795 7.08331H16.6603C17.2412 7.08331 17.7228 7.56498 17.7228 8.14581V13.8266C17.7228 14.4075 17.2412 14.8891 16.6603 14.8891ZM12.042 12.7641H15.5978V9.20831H12.042V12.7641Z" fill="white"/>
<path d="M23.0212 19.125H10.9795C10.3987 19.125 9.91699 18.6433 9.91699 18.0625C9.91699 17.4816 10.3987 17 10.9795 17H23.0212C23.602 17 24.0837 17.4816 24.0837 18.0625C24.0837 18.6433 23.602 19.125 23.0212 19.125Z" fill="white"/>
<path d="M23.0212 23.035H10.9795C10.3987 23.035 9.91699 22.5533 9.91699 21.9725C9.91699 21.3916 10.3987 20.91 10.9795 20.91H23.0212C23.602 20.91 24.0837 21.3916 24.0837 21.9725C24.0837 22.5533 23.602 23.035 23.0212 23.035Z" fill="white"/>
<path d="M16.6462 26.9166H10.9795C10.3987 26.9166 9.91699 26.435 9.91699 25.8541C9.91699 25.2733 10.3987 24.7916 10.9795 24.7916H16.6462C17.227 24.7916 17.7087 25.2733 17.7087 25.8541C17.7087 26.435 17.227 26.9166 16.6462 26.9166Z" fill="white"/>
</svg>
