<svg width="22" height="22" viewBox="0 0 22 22" fill="none" xmlns="http://www.w3.org/2000/svg">
<path d="M0.979492 5.58341C0.535325 5.58341 0.166992 5.21508 0.166992 4.77091V2.06258C0.166992 1.02258 1.02283 0.166748 2.06283 0.166748H4.77116C5.21533 0.166748 5.58366 0.535081 5.58366 0.979248C5.58366 1.42341 5.21533 1.79175 4.77116 1.79175H2.06283C1.91116 1.79175 1.79199 1.91091 1.79199 2.06258V4.77091C1.79199 5.21508 1.42366 5.58341 0.979492 5.58341Z" fill="white"/>
<path d="M4.77116 21.8334H2.06283C1.02283 21.8334 0.166992 20.9775 0.166992 19.9375V17.2942C0.166992 16.85 0.535325 16.4817 0.979492 16.4817C1.42366 16.4817 1.79199 16.85 1.79199 17.2942V19.9375C1.79199 20.0892 1.91116 20.2084 2.06283 20.2084H4.77116C5.21533 20.2084 5.58366 20.5767 5.58366 21.0209C5.58366 21.465 5.21533 21.8334 4.77116 21.8334Z" fill="white"/>
<path d="M19.9378 21.8334H17.2295C16.7853 21.8334 16.417 21.4651 16.417 21.0209C16.417 20.5767 16.7853 20.2084 17.2295 20.2084H19.9378C20.0895 20.2084 20.2087 20.0892 20.2087 19.9376V17.2292C20.2087 16.7851 20.577 16.4167 21.0212 16.4167C21.4653 16.4167 21.8337 16.7851 21.8337 17.2292V19.9376C21.8337 20.9776 20.9778 21.8334 19.9378 21.8334Z" fill="white"/>
<path d="M21.0212 5.58341C20.577 5.58341 20.2087 5.21508 20.2087 4.77091V2.06258C20.2087 1.91091 20.0895 1.79175 19.9378 1.79175H17.2295C16.7853 1.79175 16.417 1.42341 16.417 0.979248C16.417 0.535081 16.7853 0.166748 17.2295 0.166748H19.9378C20.9778 0.166748 21.8337 1.02258 21.8337 2.06258V4.77091C21.8337 5.21508 21.4653 5.58341 21.0212 5.58341Z" fill="white"/>
<path d="M15.837 16.4168H6.16434C5.84708 16.4168 5.58398 16.0485 5.58398 15.6043V6.396C5.58398 5.95183 5.84708 5.5835 6.16434 5.5835H15.837C16.1542 5.5835 16.4173 5.95183 16.4173 6.396V15.6043C16.4173 16.0485 16.1542 16.4168 15.837 16.4168ZM7.20898 14.7918H14.7923V7.2085H7.20898V14.7918Z" fill="white"/>
</svg>
