<svg width="26" height="26" viewBox="0 0 26 26" fill="none" xmlns="http://www.w3.org/2000/svg">
<path d="M13 0C16.5321 0 16.9728 0.0129999 18.3586 0.0779999C19.7431 0.143 20.6856 0.3601 21.515 0.6825C22.373 1.0127 23.0958 1.4599 23.8186 2.1814C24.4796 2.83126 24.9911 3.61737 25.3175 4.485C25.6386 5.3131 25.857 6.2569 25.922 7.6414C25.9831 9.0272 26 9.4679 26 13C26 16.5321 25.987 16.9728 25.922 18.3586C25.857 19.7431 25.6386 20.6856 25.3175 21.515C24.9921 22.3831 24.4805 23.1694 23.8186 23.8186C23.1686 24.4794 22.3825 24.9909 21.515 25.3175C20.6869 25.6386 19.7431 25.857 18.3586 25.922C16.9728 25.9831 16.5321 26 13 26C9.4679 26 9.0272 25.987 7.6414 25.922C6.2569 25.857 5.3144 25.6386 4.485 25.3175C3.61702 24.9918 2.83079 24.4802 2.1814 23.8186C1.52023 23.1688 1.00871 22.3827 0.6825 21.515C0.3601 20.6869 0.143 19.7431 0.0779999 18.3586C0.0168999 16.9728 0 16.5321 0 13C0 9.4679 0.0129999 9.0272 0.0779999 7.6414C0.143 6.2556 0.3601 5.3144 0.6825 4.485C1.00781 3.61683 1.51944 2.83052 2.1814 2.1814C2.83097 1.52 3.61716 1.00845 4.485 0.6825C5.3144 0.3601 6.2556 0.143 7.6414 0.0779999C9.0272 0.0168999 9.4679 0 13 0ZM13 6.5C11.2761 6.5 9.62279 7.18482 8.40381 8.40381C7.18482 9.62279 6.5 11.2761 6.5 13C6.5 14.7239 7.18482 16.3772 8.40381 17.5962C9.62279 18.8152 11.2761 19.5 13 19.5C14.7239 19.5 16.3772 18.8152 17.5962 17.5962C18.8152 16.3772 19.5 14.7239 19.5 13C19.5 11.2761 18.8152 9.62279 17.5962 8.40381C16.3772 7.18482 14.7239 6.5 13 6.5ZM21.45 6.175C21.45 5.74402 21.2788 5.3307 20.974 5.02595C20.6693 4.7212 20.256 4.55 19.825 4.55C19.394 4.55 18.9807 4.7212 18.6759 5.02595C18.3712 5.3307 18.2 5.74402 18.2 6.175C18.2 6.60598 18.3712 7.0193 18.6759 7.32405C18.9807 7.62879 19.394 7.8 19.825 7.8C20.256 7.8 20.6693 7.62879 20.974 7.32405C21.2788 7.0193 21.45 6.60598 21.45 6.175ZM13 9.1C14.0343 9.1 15.0263 9.51089 15.7577 10.2423C16.4891 10.9737 16.9 11.9657 16.9 13C16.9 14.0343 16.4891 15.0263 15.7577 15.7577C15.0263 16.4891 14.0343 16.9 13 16.9C11.9657 16.9 10.9737 16.4891 10.2423 15.7577C9.51089 15.0263 9.1 14.0343 9.1 13C9.1 11.9657 9.51089 10.9737 10.2423 10.2423C10.9737 9.51089 11.9657 9.1 13 9.1Z" fill="white"/>
</svg>
