<svg width="12" height="15" viewBox="0 0 12 15" fill="none" xmlns="http://www.w3.org/2000/svg">
<path d="M6 12.9332L9.3 9.6332C9.9526 8.98054 10.397 8.14901 10.577 7.24378C10.7571 6.33855 10.6646 5.40026 10.3114 4.54757C9.95817 3.69488 9.36003 2.96607 8.59261 2.45331C7.82519 1.94055 6.92296 1.66687 6 1.66687C5.07704 1.66687 4.17481 1.94055 3.40739 2.45331C2.63997 2.96607 2.04183 3.69488 1.68861 4.54757C1.33539 5.40026 1.24294 6.33855 1.42297 7.24378C1.603 8.14901 2.04741 8.98054 2.7 9.6332L6 12.9332ZM6 14.8185L1.75734 10.5759C0.918228 9.73675 0.346791 8.66765 0.115286 7.50377C-0.11622 6.33988 0.00260456 5.13349 0.456732 4.03713C0.91086 2.94078 1.6799 2.00371 2.66659 1.34443C3.65328 0.685144 4.81332 0.333252 6 0.333252C7.18669 0.333252 8.34672 0.685144 9.33342 1.34443C10.3201 2.00371 11.0891 2.94078 11.5433 4.03713C11.9974 5.13349 12.1162 6.33988 11.8847 7.50377C11.6532 8.66765 11.0818 9.73675 10.2427 10.5759L6 14.8185ZM6 7.66653C6.35362 7.66653 6.69276 7.52606 6.94281 7.27601C7.19286 7.02596 7.33334 6.68682 7.33334 6.3332C7.33334 5.97958 7.19286 5.64044 6.94281 5.39039C6.69276 5.14034 6.35362 4.99987 6 4.99987C5.64638 4.99987 5.30724 5.14034 5.05719 5.39039C4.80715 5.64044 4.66667 5.97958 4.66667 6.3332C4.66667 6.68682 4.80715 7.02596 5.05719 7.27601C5.30724 7.52606 5.64638 7.66653 6 7.66653ZM6 8.99987C5.29276 8.99987 4.61448 8.71891 4.11438 8.21882C3.61429 7.71872 3.33334 7.04044 3.33334 6.3332C3.33334 5.62596 3.61429 4.94768 4.11438 4.44758C4.61448 3.94748 5.29276 3.66653 6 3.66653C6.70725 3.66653 7.38552 3.94748 7.88562 4.44758C8.38572 4.94768 8.66667 5.62596 8.66667 6.3332C8.66667 7.04044 8.38572 7.71872 7.88562 8.21882C7.38552 8.71891 6.70725 8.99987 6 8.99987Z" fill="white"/>
</svg>
