<svg width="18" height="18" viewBox="0 0 18 18" fill="none" xmlns="http://www.w3.org/2000/svg">
<path d="M15.2201 18C15.0901 18 14.9601 17.99 14.8401 17.97C7.18007 16.91 1.09007 10.82 0.0300725 3.16C-0.0799275 2.36 0.160073 1.56 0.690073 0.95C1.21007 0.35 1.97007 0 2.77007 0H6.07007C6.93007 0 7.65007 0.61 7.80007 1.45L8.19007 3.64C8.38007 4.69 7.93007 5.76 7.07007 6.38L6.74007 6.61C7.95007 8.45 9.54007 10.03 11.4001 11.24L11.6101 10.95C12.2201 10.08 13.3001 9.64 14.3501 9.82L16.5401 10.21C17.3801 10.36 17.9901 11.09 17.9901 11.94V15.24C17.9901 16.04 17.6401 16.8 17.0401 17.33C16.5401 17.76 15.8901 18 15.2201 18ZM2.77007 1.5C2.40007 1.5 2.06007 1.65 1.81007 1.94C1.57007 2.22 1.46007 2.59 1.51007 2.96C2.48007 9.95 8.05007 15.52 15.0401 16.49C15.4101 16.54 15.7801 16.43 16.0601 16.19C16.3401 15.94 16.5001 15.61 16.5001 15.23V11.93C16.5001 11.8 16.4101 11.7 16.2901 11.68L14.1001 11.29C13.6101 11.21 13.1301 11.41 12.8501 11.81L12.2301 12.68C12.0001 13 11.5701 13.09 11.2301 12.89C8.70007 11.4 6.57007 9.29 5.09007 6.79C4.89007 6.45 4.98007 6.02 5.30007 5.8L6.19007 5.17C6.59007 4.89 6.79007 4.4 6.71007 3.92L6.32007 1.71C6.30007 1.59 6.19007 1.5 6.07007 1.5H2.77007Z" fill="white"/>
</svg>
