<svg width="28" height="28" viewBox="0 0 28 28" fill="none" xmlns="http://www.w3.org/2000/svg">
<path d="M14.0003 27.3334C6.63633 27.3334 0.666992 21.3641 0.666992 14.0001C0.666992 6.63608 6.63633 0.666748 14.0003 0.666748C21.3643 0.666748 27.3337 6.63608 27.3337 14.0001C27.3337 21.3641 21.3643 27.3334 14.0003 27.3334ZM12.163 9.22008C12.0827 9.16654 11.9895 9.13577 11.8931 9.13104C11.7968 9.12631 11.701 9.14781 11.6159 9.19323C11.5308 9.23865 11.4596 9.30631 11.4099 9.38899C11.3602 9.47167 11.3338 9.56628 11.3337 9.66275V18.3374C11.3338 18.4339 11.3602 18.5285 11.4099 18.6112C11.4596 18.6939 11.5308 18.7615 11.6159 18.8069C11.701 18.8524 11.7968 18.8738 11.8931 18.8691C11.9895 18.8644 12.0827 18.8336 12.163 18.7801L18.6683 14.4441C18.7415 14.3954 18.8015 14.3294 18.843 14.2519C18.8845 14.1745 18.9062 14.088 18.9062 14.0001C18.9062 13.9122 18.8845 13.8257 18.843 13.7482C18.8015 13.6708 18.7415 13.6048 18.6683 13.5561L12.1617 9.22008H12.163Z" fill="white"/>
</svg>
