<svg width="26" height="26" viewBox="0 0 26 26" fill="none" xmlns="http://www.w3.org/2000/svg">
<path d="M13 25.5C6.09625 25.5 0.5 19.9037 0.5 13C0.5 6.09625 6.09625 0.5 13 0.5C19.9037 0.5 25.5 6.09625 25.5 13C25.5 19.9037 19.9037 25.5 13 25.5ZM13 23C15.6522 23 18.1957 21.9464 20.0711 20.0711C21.9464 18.1957 23 15.6522 23 13C23 10.3478 21.9464 7.8043 20.0711 5.92893C18.1957 4.05357 15.6522 3 13 3C10.3478 3 7.8043 4.05357 5.92893 5.92893C4.05357 7.8043 3 10.3478 3 13C3 15.6522 4.05357 18.1957 5.92893 20.0711C7.8043 21.9464 10.3478 23 13 23ZM11.2775 8.51875L17.3763 12.5837C17.4448 12.6294 17.5011 12.6913 17.54 12.7639C17.5789 12.8365 17.5992 12.9176 17.5992 13C17.5992 13.0824 17.5789 13.1635 17.54 13.2361C17.5011 13.3087 17.4448 13.3706 17.3763 13.4163L11.2763 17.4813C11.201 17.5311 11.1137 17.5597 11.0236 17.5639C10.9335 17.5682 10.8438 17.548 10.7643 17.5054C10.6847 17.4629 10.6181 17.3996 10.5716 17.3223C10.525 17.245 10.5003 17.1565 10.5 17.0662V8.93375C10.5002 8.84331 10.5249 8.75461 10.5714 8.6771C10.618 8.59959 10.6848 8.53616 10.7646 8.49358C10.8443 8.45099 10.9342 8.43084 11.0245 8.43528C11.1148 8.43971 11.2023 8.46856 11.2775 8.51875Z" fill="white"/>
</svg>
