<svg width="39" height="24" viewBox="0 0 39 24" fill="none" xmlns="http://www.w3.org/2000/svg">
<path d="M2 10.5C1.17157 10.5 0.5 11.1716 0.5 12C0.5 12.8284 1.17157 13.5 2 13.5V10.5ZM38.0607 13.0607C38.6464 12.4749 38.6464 11.5251 38.0607 10.9393L28.5147 1.3934C27.9289 0.807611 26.9792 0.807611 26.3934 1.3934C25.8076 1.97919 25.8076 2.92893 26.3934 3.51472L34.8787 12L26.3934 20.4853C25.8076 21.0711 25.8076 22.0208 26.3934 22.6066C26.9792 23.1924 27.9289 23.1924 28.5147 22.6066L38.0607 13.0607ZM2 13.5H37V10.5H2V13.5Z" fill="#FAFAFA"/>
</svg>
