<svg width="22" height="25" viewBox="0 0 22 25" fill="none" xmlns="http://www.w3.org/2000/svg">
<path d="M1.66667 0.333374H20.3333C20.6428 0.333374 20.9395 0.45629 21.1583 0.675083C21.3771 0.893875 21.5 1.19062 21.5 1.50004V23.9887C21.5001 24.086 21.4758 24.1819 21.4294 24.2674C21.383 24.353 21.3159 24.4256 21.2343 24.4786C21.1526 24.5316 21.059 24.5633 20.962 24.5709C20.8649 24.5784 20.7675 24.5616 20.6787 24.5219L11 20.2017L1.32133 24.5207C1.23255 24.5604 1.13526 24.5772 1.03831 24.5697C0.94136 24.5622 0.847822 24.5306 0.766206 24.4777C0.684589 24.4249 0.617484 24.3524 0.570991 24.267C0.524499 24.1816 0.500095 24.0859 0.5 23.9887V1.50004C0.5 1.19062 0.622916 0.893875 0.841709 0.675083C1.0605 0.45629 1.35725 0.333374 1.66667 0.333374ZM19.1667 21.2925V2.66671H2.83333V21.2925L11 17.6479L19.1667 21.2925ZM11 13.75L7.57117 15.5525L8.22567 11.7352L5.4525 9.03087L9.28617 8.47321L11 5.00004L12.715 8.47321L16.5475 9.03087L13.7743 11.7352L14.4277 15.5525L11 13.75Z" fill="white"/>
</svg>
