<svg width="22" height="24" viewBox="0 0 22 24" fill="none" xmlns="http://www.w3.org/2000/svg">
<path d="M21.5 7.33337V22.4919C21.5011 22.6451 21.472 22.797 21.4143 22.939C21.3567 23.0809 21.2717 23.2101 21.1641 23.3192C21.0565 23.4283 20.9285 23.5152 20.7873 23.5748C20.6462 23.6344 20.4947 23.6656 20.3415 23.6667H1.6585C1.35145 23.6667 1.05696 23.5448 0.839729 23.3278C0.622502 23.1108 0.500309 22.8164 0.5 22.5094V1.49071C0.5 0.864208 1.02383 0.333374 1.669 0.333374H14.4965L21.5 7.33337ZM19.1667 8.50004H13.3333V2.66671H2.83333V21.3334H19.1667V8.50004ZM6.33333 6.16671H9.83333V8.50004H6.33333V6.16671ZM6.33333 10.8334H15.6667V13.1667H6.33333V10.8334ZM6.33333 15.5H15.6667V17.8334H6.33333V15.5Z" fill="white"/>
</svg>
