<svg width="18" height="18" viewBox="0 0 18 18" fill="none" xmlns="http://www.w3.org/2000/svg">
<path d="M17.53 16.32L13.8 12.59C14.86 11.26 15.5 9.57 15.5 7.75C15.5 3.48 12.02 0 7.75 0C3.48 0 0 3.48 0 7.75C0 12.02 3.48 15.5 7.75 15.5C9.65 15.5 11.4 14.81 12.76 13.67L16.47 17.38C16.62 17.53 16.81 17.6 17 17.6C17.19 17.6 17.38 17.53 17.53 17.38C17.82 17.09 17.82 16.61 17.53 16.32ZM1.5 7.75C1.5 4.3 4.3 1.5 7.75 1.5C11.2 1.5 14 4.3 14 7.75C14 9.44 13.34 10.96 12.25 12.08L12.24 12.09C12.23 12.1 12.23 12.1 12.23 12.11C11.09 13.28 9.5 14 7.75 14C4.3 14 1.5 11.2 1.5 7.75Z" fill="white"/>
</svg>
