<svg width="34" height="34" viewBox="0 0 34 34" fill="none" xmlns="http://www.w3.org/2000/svg">
<path d="M24.5934 29.75C24.4234 29.75 24.2534 29.7075 24.0975 29.6225L17 25.8967L9.90253 29.6225C9.54836 29.8067 9.1092 29.7783 8.78336 29.5375C8.45753 29.2967 8.28753 28.9 8.35836 28.5033L9.71836 20.5983L3.9667 15.0025C3.68336 14.7192 3.57003 14.2942 3.69753 13.9117C3.82503 13.5292 4.15086 13.2458 4.5617 13.1892L12.495 12.0417L16.0509 4.845C16.405 4.1225 17.595 4.1225 17.9634 4.845L21.5192 12.0417L29.4525 13.1892C29.8492 13.2458 30.1892 13.5292 30.3167 13.9117C30.4442 14.2942 30.3309 14.7192 30.0475 15.0025L24.2959 20.5983L25.6559 28.5033C25.7267 28.9 25.5567 29.3108 25.2309 29.5375C25.0325 29.6792 24.82 29.75 24.5934 29.75ZM17 23.63C17.17 23.63 17.34 23.6725 17.4959 23.7575L23.1909 26.7467L22.1 20.4142C22.0434 20.0742 22.1567 19.72 22.4117 19.4792L27.0159 14.9883L20.655 14.0675C20.3009 14.0108 20.0034 13.7983 19.8475 13.4867L17 7.70667L14.1525 13.4725C13.9967 13.7842 13.6992 14.0108 13.3592 14.0533L6.99836 14.9742L11.6025 19.465C11.8575 19.7058 11.9709 20.06 11.9142 20.4L10.8234 26.7325L16.5184 23.7433C16.66 23.6725 16.83 23.63 17 23.63Z" fill="white"/>
</svg>
