<svg width="34" height="34" viewBox="0 0 34 34" fill="none" xmlns="http://www.w3.org/2000/svg">
<path d="M31.3505 19.6492C31.2938 19.5925 31.2372 19.5359 31.1663 19.5075V12.75C31.1663 12.5375 31.0955 12.325 30.9822 12.155C30.9255 12.0842 30.8688 12.0134 30.798 11.9567C30.7413 11.9 30.6847 11.8575 30.6138 11.8292C30.5855 11.8009 30.543 11.7867 30.5147 11.7725L17.4388 5.76585C17.1555 5.63835 16.8438 5.63835 16.5605 5.76585L3.45634 11.7867C3.07384 11.9567 2.83301 12.3392 2.83301 12.75C2.83301 13.1609 3.07384 13.5434 3.45634 13.7134L7.79134 15.7109V24.4375C7.79134 24.6359 7.81967 24.8484 7.86217 24.9475C8.45717 27.285 12.8772 28.3334 16.9997 28.3334C21.1222 28.3334 25.5422 27.285 26.1088 25.0325C26.1797 24.8484 26.208 24.6359 26.208 24.4375V15.7109L29.0413 14.4075V19.4934C28.9705 19.5359 28.8997 19.5925 28.8572 19.6492C28.5172 19.975 28.333 20.4284 28.333 20.8959C28.333 21.3634 28.5172 21.8167 28.8572 22.1425C29.013 22.3125 29.2113 22.44 29.4238 22.525C29.6363 22.6242 29.863 22.6667 30.1038 22.6667C30.5713 22.6667 31.0247 22.4825 31.3505 22.1425C31.6905 21.8167 31.8747 21.3775 31.8747 20.8959C31.8747 20.4284 31.6905 19.975 31.3505 19.6492ZM24.0688 24.4375C23.9555 24.9192 21.5897 26.2084 16.9997 26.2084C12.4097 26.2084 10.0438 24.9192 9.91634 24.4375V16.6884L16.5605 19.7342C16.7022 19.805 16.8438 19.8334 16.9997 19.8334C17.1555 19.8334 17.2972 19.805 17.4388 19.7342L24.083 16.6884L24.0688 24.4375ZM16.9997 17.595L6.44551 12.75L16.9997 7.90502L27.5538 12.75L16.9997 17.595Z" fill="white"/>
</svg>
