<svg width="34" height="34" viewBox="0 0 34 34" fill="none" xmlns="http://www.w3.org/2000/svg">
<path d="M7.43754 15.6258C7.16837 15.6258 6.89921 15.5267 6.68671 15.3142L3.14504 11.7725C2.73421 11.3617 2.73421 10.6817 3.14504 10.2708C3.55587 9.86 4.23587 9.86 4.64671 10.2708L7.43754 13.0617L14.4784 6.035C14.8892 5.62417 15.5692 5.62417 15.98 6.035C16.3909 6.44583 16.3909 7.12583 15.98 7.53667L8.18837 15.3142C7.97587 15.5125 7.70671 15.6258 7.43754 15.6258Z" fill="white"/>
<path d="M7.43754 28.2908C7.16837 28.2908 6.89921 28.1917 6.68671 27.9792L3.14504 24.4375C2.73421 24.0267 2.73421 23.3467 3.14504 22.9358C3.55587 22.525 4.23587 22.525 4.64671 22.9358L7.43754 25.7267L14.4784 18.7C14.8892 18.2892 15.5692 18.2892 15.98 18.7C16.3909 19.1108 16.3909 19.7908 15.98 20.2017L8.18837 27.9792C7.97587 28.1775 7.70671 28.2908 7.43754 28.2908Z" fill="white"/>
<path d="M30.1035 12.3958H19.4785C18.8977 12.3958 18.416 11.9142 18.416 11.3333C18.416 10.7525 18.8977 10.2708 19.4785 10.2708H30.1035C30.6843 10.2708 31.166 10.7525 31.166 11.3333C31.166 11.9142 30.6843 12.3958 30.1035 12.3958Z" fill="white"/>
<path d="M30.1035 25.1458H19.4785C18.8977 25.1458 18.416 24.6642 18.416 24.0833C18.416 23.5025 18.8977 23.0208 19.4785 23.0208H30.1035C30.6843 23.0208 31.166 23.5025 31.166 24.0833C31.166 24.6642 30.6843 25.1458 30.1035 25.1458Z" fill="white"/>
</svg>
