<svg width="26" height="26" viewBox="0 0 26 26" fill="none" xmlns="http://www.w3.org/2000/svg">
<path fill-rule="evenodd" clip-rule="evenodd" d="M12.5455 25.5455C19.4741 25.5455 25.0909 19.9287 25.0909 13C25.0909 6.07138 19.4741 0.45459 12.5455 0.45459C5.61679 0.45459 0 6.07138 0 13C0 19.9287 5.61679 25.5455 12.5455 25.5455ZM18.354 9.04445C18.9332 8.97561 19.4989 8.82064 20.0323 8.58468L20.033 8.58538C19.6407 9.17233 19.1469 9.68461 18.5748 10.0981C18.5803 10.2225 18.5838 10.3497 18.5838 10.4755C18.5838 14.3374 15.6443 18.7904 10.2689 18.7904C8.68077 18.7919 7.12581 18.3358 5.79004 17.4768C6.55524 17.5692 7.33115 17.5099 8.07341 17.3022C8.81568 17.0945 9.50973 16.7426 10.1159 16.2666C9.50599 16.2552 8.9149 16.0535 8.42537 15.6895C7.93585 15.3255 7.57241 14.8175 7.38595 14.2367C7.82427 14.3203 8.27586 14.3031 8.70655 14.1864C8.04519 14.0526 7.45046 13.6942 7.0232 13.1719C6.59594 12.6496 6.36244 11.9957 6.3623 11.3209V11.2846C6.76801 11.5101 7.22175 11.6354 7.6857 11.65C6.90172 11.126 6.38606 10.2309 6.38606 9.21774C6.38533 8.70153 6.52182 8.19441 6.78154 7.7483C7.5153 8.6511 8.43072 9.38949 9.46837 9.91553C10.506 10.4416 11.6427 10.7435 12.8046 10.8018C12.657 10.1748 12.7207 9.51672 12.9857 8.92971C13.2507 8.3427 13.7022 7.85969 14.27 7.55577C14.8379 7.25184 15.4902 7.14404 16.1257 7.24911C16.7611 7.35419 17.344 7.66625 17.7838 8.1368C18.4385 8.00753 19.0667 7.76856 19.6396 7.42758C19.4214 8.10466 18.9645 8.67931 18.354 9.04445Z" fill="white"/>
</svg>
