<svg width="16" height="16" viewBox="0 0 16 16" fill="none" xmlns="http://www.w3.org/2000/svg">
<path d="M2.66732 4.09542V12.6448L6.04398 11.1981L10.044 13.1981L13.334 11.7868V3.23809L14.2027 2.86609C14.2534 2.84435 14.3087 2.83554 14.3637 2.84045C14.4186 2.84537 14.4715 2.86385 14.5176 2.89425C14.5637 2.92465 14.6014 2.96601 14.6276 3.01462C14.6537 3.06323 14.6674 3.11757 14.6673 3.17276V12.6668L10.0007 14.6668L6.00065 12.6668L1.79865 14.4674C1.74793 14.4892 1.6926 14.498 1.63763 14.4931C1.58266 14.4881 1.52977 14.4697 1.48371 14.4393C1.43765 14.4089 1.39985 14.3675 1.37372 14.3189C1.34759 14.2703 1.33394 14.2159 1.33398 14.1608V4.66676L2.66732 4.09542ZM10.8293 7.49542L8.00065 10.3234L5.17198 7.49542C4.61264 6.93599 4.23175 6.22325 4.07746 5.44735C3.92317 4.67144 4.00243 3.86721 4.3052 3.13635C4.60797 2.40548 5.12066 1.78081 5.77844 1.34131C6.43622 0.901815 7.20955 0.667236 8.00065 0.667236C8.79175 0.667236 9.56508 0.901815 10.2229 1.34131C10.8806 1.78081 11.3933 2.40548 11.6961 3.13635C11.9989 3.86721 12.0781 4.67144 11.9238 5.44735C11.7696 6.22325 11.3887 6.93599 10.8293 7.49542ZM8.00065 8.43809L9.88598 6.55209C10.259 6.17918 10.5131 5.70403 10.616 5.18672C10.719 4.66942 10.6662 4.1332 10.4644 3.64588C10.2626 3.15857 9.9208 2.74204 9.48225 2.44899C9.04371 2.15594 8.5281 1.99952 8.00065 1.99952C7.4732 1.99952 6.95759 2.15594 6.51905 2.44899C6.0805 2.74204 5.7387 3.15857 5.53689 3.64588C5.33508 4.1332 5.28232 4.66942 5.38528 5.18672C5.48824 5.70403 5.7423 6.17918 6.11532 6.55209L8.00065 8.43809Z" fill="white"/>
</svg>
