<svg width="28" height="34" viewBox="0 0 28 34" fill="none" xmlns="http://www.w3.org/2000/svg">
<path d="M26.966 11.5334L16.1327 0.700041C15.8993 0.483374 15.5993 0.333374 15.266 0.333374H3.58268C1.98268 0.333374 0.666016 1.65004 0.666016 3.25004V30.75C0.666016 32.35 1.98268 33.6667 3.58268 33.6667H24.416C26.016 33.6667 27.3327 32.35 27.3327 30.75V12.4C27.3327 12.0667 27.1827 11.7667 26.966 11.5334ZM16.4993 4.60004L23.066 11.1667H16.4993V4.60004ZM24.8327 30.75C24.8327 30.9834 24.6493 31.1667 24.416 31.1667H3.58268C3.34935 31.1667 3.16602 30.9834 3.16602 30.75V3.25004C3.16602 3.01671 3.34935 2.83337 3.58268 2.83337H13.9993V12.4167C13.9993 13.1 14.566 13.6667 15.2493 13.6667H24.8327V30.75Z" fill="black"/>
<path d="M26.9656 11.5334C27.1823 11.7667 27.3323 12.0667 27.3323 12.4C27.3323 12.0834 27.2156 11.7667 26.9656 11.5334ZM16.1323 0.700041C15.899 0.450041 15.5823 0.333374 15.2656 0.333374C15.599 0.333374 15.899 0.483374 16.1323 0.700041Z" fill="black"/>
<path d="M19.6319 22.6333C19.6319 23.3167 19.0652 23.8667 18.3652 23.8667H15.2486V27C15.2486 27.6833 14.6819 28.25 13.9986 28.25C13.3152 28.25 12.7486 27.6833 12.7486 27V23.8667H9.6319C8.9319 23.8667 8.36523 23.3167 8.36523 22.6333C8.36523 21.9333 8.9319 21.3667 9.6319 21.3667H12.7486V18.25C12.7486 17.5667 13.3152 17 13.9986 17C14.6819 17 15.2486 17.5667 15.2486 18.25V21.3667H18.3652C19.0652 21.3667 19.6319 21.9333 19.6319 22.6333Z" fill="black"/>
</svg>
